PathFileType	4	(X/Y/Z)	C:/Users/beibeiliu/ov580/test_trc/User3\sequence.27_training_dense_left.trc
DataRate	CameraRate	NumFrames	NumMarkers	Units	OrigDataRate	OrigDataStartFrame	OrigNumFrames
120	120	19	19	mm	120	208	276
Frame#	Time	ThumbCMC			ThumbMCP			ThumbIP			ThumbTip			IndexMCP			IndexPIP			IndexTip			MiddleMCP			MiddlePIP			MiddleTip			RingMCP			RingPIP			RingTip			PinkyMCP			PinkyPIP			PinkyTip			BackHand1			BackHand2			BackHand3	
		X0	Y0	Z0	X1	Y1	Z1	X2	Y2	Z2	X3	Y3	Z3	X4	Y4	Z4	X5	Y5	Z5	X6	Y6	Z6	X7	Y7	Z7	X8	Y8	Z8	X9	Y9	Z9	X10	Y10	Z10	X11	Y11	Z11	X12	Y12	Z12	X13	Y13	Z13	X14	Y14	Z14	X15	Y15	Z15	X16	Y16	Z16	X17	Y17	Z17	X18	Y18	Z18	
207	1.725	-131.33	-29.8395	18.7899	-122.437	-32.0058	-15.9722	-130.681	-26.729	-47.5355	-149.547	-27.2928	-66.0731	-143.353	24.9894	-36.2164	-140.033	34.7309	-59.6925	-142.35	41.8589	-82.2644	-161.859	26.0864	-44.0786	-159.975	33.8487	-69.2691	-156.589	40.4255	-100.89	-172.544	0.763145	-48.6889	-169.48	-25.0029	-63.9602	-159.053	-41.0983	-37.3023	-190.996	-20.5846	-43.9697	-175.625	-44.1005	-45.9432	-170.053	-46.3284	-14.5143	-184.408	1.50929	9.07809	-191.149	-12.6901	35.185	-156.078	-3.2739	28.8657	
208	1.73333	-139.195	-35.4371	13.5415	-134.94	-37.0867	-21.8513	-141.737	-37.4659	-54.1257	-167.155	-38.3612	-70.1735	-156.142	15.0209	-46.1674	-151.292	25.383	-71.9353	-155.892	29.7217	-93.7624	-174.154	16.2004	-50.9193	-171.24	21.9686	-79.9643	-172.198	26.3294	-113.725	-189.998	-10.2607	-53.9885	-177.173	-38.4105	-65.8472	-170.653	-50.0297	-35.5591	-199.02	-27.2722	-46.9358	-184.551	-52.431	-44.9184	-178.902	-53.8139	-19.7155	-193.695	-4.38259	4.40872	-198.972	-16.8284	31.7031	-165.392	-6.07741	20.1206	
209	1.74167	-146.968	-38.6543	8.05327	-141.629	-46.0854	-24.9145	-155.002	-46.4892	-58.8226	-177.138	-49.3456	-70.1504	-163.724	5.33049	-51.7366	-164.847	11.5837	-80.1358	-170.082	15.8012	-104.879	-186.125	6.91013	-58.7392	-184.586	11.507	-88.9463	-180.465	13.6563	-120.095	-197.072	-19.7669	-57.5276	-188.965	-48.9753	-69.2356	-178.992	-58.0198	-35.7443	-211.641	-39.2955	-47.7744	-197.12	-63.3331	-43.9325	-186.519	-57.221	-14.9667	-203.021	-7.20741	-1.4207	-201.75	-15.9816	24.553	-172.371	-7.86157	15.5206	
210	1.75	-152.896	-38.5795	2.27648	-149.826	-52.1742	-28.2799	-163.494	-56.9239	-57.0659	-186.635	-61.7308	-72.1475	-169.682	-1.4524	-62.7697	-170.775	1.25431	-90.2246	-178.013	0.733963	-111.059	-192.485	-2.88216	-67.2573	-190.656	-2.53776	-91.9101	-193.019	-4.11688	-128.511	-207.314	-33.3709	-61.0636	-196.544	-59.7149	-67.9163	-185.971	-66.7605	-36.2677	-220.541	-48.6801	-47.7237	-202.261	-71.885	-41.068	-190.394	-63.0263	-14.9441	-208.021	-10.345	-3.8349	-209.739	-20.6641	26.1403	-176.545	-9.28498	5.94118	
211	1.75833	-158.455	-42.1849	2.65256	-156.531	-57.7308	-29.8257	-167.53	-69.5752	-57.8124	-188.936	-75.5244	-66.1756	-174.046	-13.5772	-69.3185	-177.105	-16.2694	-92.8554	-183.13	-18.8776	-119.375	-198.36	-15.5667	-70.4422	-195.766	-18.8691	-96.6684	-197.839	-26.616	-131.851	-211.628	-46.1829	-64.3274	-201.24	-75.3386	-62.9124	-189.83	-74.5673	-30.2291	-221.252	-60.0087	-47.881	-206.272	-78.8041	-37.866	-193.841	-69.7806	-12.4447	-215.712	-15.0409	-11.2269	-214.552	-19.4669	19.013	-178.231	-9.42604	1.90039	
212	1.76667	-154.94	-43.3031	1.121	-151.737	-66.3281	-25.8857	-169.212	-80.0168	-52.4321	-191.348	-88.3037	-59.4614	-177.964	-28.0285	-71.5745	-178.689	-33.3562	-95.3204	-182.56	-40.9231	-119.727	-196.118	-28.9948	-71.4967	-201.419	-38.5769	-99.7112	-197.432	-50.0421	-130.498	-212.365	-55.3833	-60.5156	-201.603	-86.0954	-56.7063	-192.105	-84.8766	-28.3442	-223.575	-65.1093	-41.1961	-207.392	-87.5544	-31.3358	-200.083	-75.6804	-5.51143	-217.829	-21.572	-11.8978	-216.257	-18.9826	19.6808	-185.34	-15.6358	-2.50439	
213	1.775	-159.988	-43.6993	5.70661	-151.832	-71.9262	-21.0106	-169.139	-87.4293	-43.4577	-193.058	-99.7976	-54.4687	-180.975	-41.8869	-72.5424	-178.971	-51.189	-94.4693	-185.324	-62.9139	-112.913	-199.633	-44.7065	-75.8615	-199.187	-55.2209	-96.516	-200.154	-73.5598	-123.087	-213.618	-66.3997	-56.4504	-202.051	-96.1973	-51.2152	-189.761	-91.6751	-22.5501	-221.633	-76.0072	-37.1098	-204.539	-94.0207	-24.2737	-196.977	-78.4608	2.23096	-219.245	-26.9781	-13.8458	-217.131	-21.6996	16.9085	-182.746	-16.9298	-2.31028	
214	1.78333	-157.811	-44.4481	7.24254	-152.971	-74.6615	-16.0972	-166.855	-95.7213	-34.5605	-186.051	-108.088	-40.0466	-177.114	-53.8445	-69.3189	-177.985	-69.0133	-88.0958	-178.064	-85.6374	-109.077	-196.231	-56.7017	-69.2243	-191.818	-75.2445	-94.8496	-190.18	-96.8071	-116.449	-211.646	-76.9209	-50.9263	-201.813	-104.834	-44.0965	-189.858	-93.6733	-12.4366	-220.548	-84.4259	-31.5733	-203.317	-101.107	-14.2337	-196.619	-81.0079	9.24701	-216.494	-30.8174	-17.0653	-214.875	-22.212	14.3287	-185.734	-18.3651	-5.55329	
215	1.79167	-157.472	-46.5573	8.79966	-148.823	-76.8206	-8.08133	-160.983	-101.506	-24.4543	-178.759	-115.053	-29.2328	-173.516	-62.8229	-60.0523	-172.065	-81.1671	-79.862	-171.629	-100.007	-95.8886	-193.45	-71.2522	-66.4994	-187.559	-88.3602	-83.5372	-183.184	-116.069	-106.036	-203.601	-88.2548	-47.8583	-197.059	-112.182	-33.1161	-183.387	-98.5347	-5.81907	-216.725	-93.914	-25.5174	-199.935	-106.82	-9.15335	-191.187	-84.7767	13.6842	-215.12	-38.2217	-14.7872	-212.816	-21.1983	13.7124	-183.07	-22.2594	-8.77806	
216	1.8	-154.198	-44.5144	15.0976	-146.051	-79.5295	-3.22165	-154.066	-104.625	-15.8332	-175.801	-119.234	-22.4376	-167.407	-70.238	-57.5644	-164.939	-93.644	-75.6901	-162.752	-111.015	-88.4498	-184.17	-76.0831	-60.3737	-179.677	-100.476	-79.575	-177.25	-129.701	-92.7806	-199.031	-90.578	-39.1755	-189.054	-116.22	-23.3551	-177.314	-97.6431	2.50115	-209.248	-96.5261	-21.6229	-194.61	-109.601	-3.06011	-185.11	-86.1723	17.0993	-208.584	-39.9515	-15.7394	-213.481	-26.5146	12.0728	-180.77	-25.5279	-6.50806	
217	1.80833	-147.065	-46.5313	14.3901	-140.271	-80.3783	2.46817	-147.992	-105.304	-7.21673	-168.714	-120.336	-14.2072	-158.953	-75.3662	-54.1889	-156.396	-95.244	-66.6532	-150.399	-118.392	-79.5612	-177.674	-84.4458	-59.2825	-170.73	-106.6	-71.5152	-164.622	-137.665	-80.4587	-190.618	-97.8321	-34.7691	-182.767	-118.377	-16.4372	-170.384	-95.956	9.38118	-204.849	-97.0535	-16.3719	-190.962	-111.37	4.13263	-182.245	-84.303	19.9957	-204.282	-42.1523	-15.319	-209.102	-26.9624	13.6212	-177.15	-26.6524	-5.29597	
218	1.81667	-144.383	-45.1086	19.8868	-133.614	-77.4491	12.0927	-140.497	-105.268	-1.98693	-159.107	-123.376	-8.52578	-149.263	-75.2622	-47.0521	-143.552	-97.3373	-59.1863	-135.014	-121.685	-69.6703	-168.207	-85.8581	-54.0919	-159.561	-110.19	-62.5239	-147.13	-144.933	-62.6301	-182.438	-97.0096	-29.6746	-168.69	-118.025	-8.81123	-165.995	-97.9709	15.1341	-198.7	-98.8117	-13.5098	-178.305	-109.308	6.05137	-174.308	-83.8137	23.7724	-198.253	-43.7059	-13.5727	-207.182	-27.3916	11.1187	-173.173	-23.974	-1.87259	
219	1.825	-140.944	-40.9672	26.9481	-124.561	-73.3265	20.1508	-128.475	-103.533	3.04893	-143.97	-119.741	-1.23981	-134.35	-70.705	-40.87	-126.032	-93.8928	-52.7391	-112.547	-120.507	-60.3183	-151.968	-82.4068	-46.8898	-141.418	-109.785	-55.7371	-126.674	-141.809	-46.0186	-165.235	-100.077	-26.072	-153.779	-115.257	-6.16904	-155.238	-92.8314	21.7232	-180.827	-98.4538	-12.3381	-169.557	-110.248	10.1641	-165.42	-85.2493	25.4033	-189.757	-46.8144	-12.0574	-200.174	-27.417	10.2648	-166.754	-25.5566	-0.418065	
220	1.83333	-134.903	-33.3838	33.5531	-115.804	-64.6678	26.7731	-110.553	-93.8522	13.8303	-127.619	-113.103	1.4378	-119.508	-61.8256	-34.918	-102.804	-83.3	-47.0715	-88.9338	-101.85	-53.3781	-132.099	-72.205	-41.9674	-113.76	-98.7947	-50.8369	-96.4404	-130.044	-37.1343	-146.864	-94.7842	-24.2953	-138.858	-109.952	-1.54703	-142.84	-88.7732	23.4494	-163.648	-101.073	-10.4157	-151.945	-106.012	12.1369	-154.418	-78.0756	28.0257	-181.301	-47.8857	-12.5137	-191.742	-30.2928	10.4193	-158.485	-20.5657	2.61895	
221	1.84167	-129.726	-22.631	37.9842	-105.254	-52.8504	31.1722	-96.2915	-81.2058	17.0014	-107.181	-103.077	5.65923	-107.66	-47.9335	-29.8158	-88.3343	-64.0445	-40.7886	-69.0444	-82.6646	-47.7153	-115.37	-59.7374	-39.7565	-95.0276	-84.2822	-47.1632	-71.5358	-111.294	-37.2637	-127.514	-81.6097	-20.6143	-118.201	-97.755	3.67837	-131.474	-76.8265	28.2128	-142.801	-90.827	-8.8404	-134.006	-96.7025	16.0293	-145.618	-72.3258	32.8236	-168.402	-43.1161	-11.2557	-192.399	-28.7401	12.5326	-152.909	-13.1661	4.58991	
222	1.85	-127.233	-11.7897	39.3678	-96.9336	-36.7506	34.4383	-82.3505	-62.6668	21.104	-90.4521	-87.6634	9.33403	-97.7666	-29.4513	-26.0695	-75.6198	-41.8703	-35.9128	-55.0733	-55.7322	-43.6741	-105.081	-45.3786	-34.3536	-77.0614	-63.0902	-43.2588	-50.2285	-84.7115	-42.1282	-110.205	-69.1126	-16.5892	-99.2428	-82.9832	7.72075	-116.751	-66.708	32.3131	-130.293	-79.5707	-5.72386	-116.482	-83.737	21.9598	-132.764	-62.1396	36.9665	-161.202	-40.0142	-9.68556	-182.221	-28.2191	13.8161	-154.519	-8.71254	8.8609	
223	1.85833	-124.211	1.41131	41.3667	-93.9067	-17.9893	41.2234	-77.1883	-41.2788	27.2258	-73.338	-67.1438	16.4118	-91.9286	-15.0272	-24.5436	-70.3375	-25.8116	-34.3382	-47.1514	-36.6944	-42.7753	-96.0626	-35.0762	-32.3517	-69.205	-41.0153	-40.7214	-36.562	-54.0524	-45.573	-99.3287	-53.4218	-12.8292	-84.7308	-63.9137	14.121	-101.502	-50.8149	35.7799	-110.17	-68.1021	-1.6823	-99.1643	-66.9233	23.0193	-119.403	-50.9087	40.6856	-153.137	-30.996	-7.27125	-177.682	-29.6922	12.5527	-151.193	-3.34364	10.3344	
224	1.86667	-123.641	10.0667	42.0571	-90.5771	-5.53817	38.4132	-65.2345	-23.0862	32.8205	-62.2579	-49.1536	21.4178	-87.9165	-1.10068	-23.4818	-63.3926	-9.04809	-33.534	-39.2822	-14.3924	-40.4473	-87.9748	-21.0955	-31.0852	-60.6544	-26.6051	-40.2287	-29.0984	-28.8256	-44.8419	-93.1509	-40.9205	-8.5981	-74.1247	-48.8757	18.2937	-93.1673	-35.2162	40.0673	-99.311	-58.4964	1.77096	-87.9116	-56.0914	27.6516	-109.449	-38.4258	45.0783	-148.571	-29.2869	-3.19877	-172.909	-25.4389	16.9874	-148.141	5.93636	9.99615	
225	1.875	-122.783	21.2134	44.7167	-86.1445	11.1155	44.1527	-66.754	-7.44703	35.6847	-56.6039	-35.186	22.3804	-84.0295	9.23836	-22.3616	-58.6684	8.98806	-30.6519	-39.4927	0.115629	-36.6882	-87.2129	-5.37804	-26.6158	-58.4622	-11.1758	-36.5799	-27.329	-10.2527	-41.6844	-81.7797	-30.4863	-5.81365	-65.4201	-29.2323	20.1987	-87.6118	-23.6485	42.611	-90.7989	-42.5538	5.50959	-80.5457	-40.5227	30.215	-103.756	-28.9872	49.0298	-143.62	-22.1946	-1.18639	-166.899	-21.664	22.7262	-147.06	11.1187	13.3008	
